<?xml version="1.0" encoding="UTF-8"?>
<svg xmlns="http://www.w3.org/2000/svg" width="860" height="300" viewBox="0 0 860 300" role="img" aria-labelledby="title desc">
  <title id="title">Architektur der Grafana Pi App</title>
  <desc id="desc">Browser, Agent Runtime, Plugin Backend und Grafana Enterprise arbeiten kontrolliert zusammen.</desc>
  <rect x="0" y="0" width="860" height="300" rx="12" fill="#f4fbfe"/>
  <g font-family="Open Sans, Arial, sans-serif">
    <g fill="none" stroke="#009EE3" stroke-width="3" stroke-linecap="round">
      <line x1="206" y1="150" x2="236" y2="150"/>
      <polygon points="236,150 223,142 223,158" fill="#009EE3" stroke="none"/>
      <line x1="416" y1="150" x2="446" y2="150"/>
      <polygon points="446,150 433,142 433,158" fill="#009EE3" stroke="none"/>
      <line x1="626" y1="150" x2="656" y2="150"/>
      <polygon points="656,150 643,142 643,158" fill="#009EE3" stroke="none"/>
      <path d="M 540 86 L 540 96"/>
      <polygon points="540,96 532,83 548,83" fill="#009EE3" stroke="none"/>
    </g>

    <rect x="400" y="18" width="280" height="68" rx="8" fill="#ffffff" stroke="#c7e6f4"/>
    <text x="540" y="39" text-anchor="middle" font-size="14" font-weight="700" fill="#00354e">LLM austauschbar</text>
    <text x="540" y="57" text-anchor="middle" font-size="11" fill="#004b6f">Azure OpenAI GPT-5.1</text>
    <text x="540" y="73" text-anchor="middle" font-size="11" fill="#004b6f">lokal: Qwen3.6 / Gemma 4</text>

    <g>
      <rect x="26" y="96" width="180" height="168" rx="10" fill="#ffffff" stroke="#c7e6f4"/>
      <g transform="translate(108 106) scale(0.64)" fill="none" stroke="#009EE3" stroke-width="2.4" stroke-linecap="round" stroke-linejoin="round">
        <rect width="20" height="14" x="2" y="3" rx="2" />
        <line x1="8" x2="16" y1="21" y2="21" />
        <line x1="12" x2="12" y1="17" y2="21" />
      </g>
      <text x="116" y="144" text-anchor="middle" font-size="16" font-weight="700" fill="#00354e">Grafana Browser</text>
      <text x="50" y="170" font-size="12" fill="#004b6f">Chat UI</text>
      <text x="50" y="193" font-size="12" fill="#004b6f">Streaming-Antwort</text>
      <text x="50" y="216" font-size="12" fill="#004b6f">Tool-Aktivität</text>
      <text x="50" y="239" font-size="12" fill="#004b6f">Freigabe-Dialoge</text>

      <rect x="236" y="96" width="180" height="168" rx="10" fill="#ffffff" stroke="#c7e6f4"/>
      <g transform="translate(318 106) scale(0.64)" fill="none" stroke="#009EE3" stroke-width="2.4" stroke-linecap="round" stroke-linejoin="round">
        <path d="M22 12h-2.48a2 2 0 0 0-1.93 1.46l-2.35 8.36a.25.25 0 0 1-.48 0L9.24 2.18a.25.25 0 0 0-.48 0l-2.35 8.36A2 2 0 0 1 4.49 12H2" />
      </g>
      <text x="326" y="144" text-anchor="middle" font-size="16" font-weight="700" fill="#00354e">Pi Agent Runtime</text>
      <text x="260" y="170" font-size="12" fill="#004b6f">Supervisor-Agent</text>
      <text x="260" y="193" font-size="12" fill="#004b6f">Spezialagenten</text>
      <text x="260" y="216" font-size="12" fill="#004b6f">Kompakte Tools</text>
      <text x="260" y="239" font-size="12" fill="#004b6f">Kleiner Kontext</text>

      <rect x="446" y="96" width="180" height="168" rx="10" fill="#f4fbfe" stroke="#009EE3"/>
      <g transform="translate(528 106) scale(0.64)" fill="none" stroke="#009EE3" stroke-width="2.4" stroke-linecap="round" stroke-linejoin="round">
        <rect width="20" height="8" x="2" y="2" rx="2" ry="2" />
        <rect width="20" height="8" x="2" y="14" rx="2" ry="2" />
        <line x1="6" x2="6.01" y1="6" y2="6" />
        <line x1="6" x2="6.01" y1="18" y2="18" />
      </g>
      <text x="536" y="144" text-anchor="middle" font-size="16" font-weight="700" fill="#00354e">Plugin Backend</text>
      <text x="470" y="170" font-size="12" fill="#004b6f">OpenAI-kompatibel</text>
      <text x="470" y="193" font-size="12" fill="#004b6f">Secrets serverseitig</text>
      <text x="470" y="216" font-size="12" fill="#004b6f">Jsonnet rendern</text>
      <text x="470" y="239" font-size="12" fill="#004b6f">Datasource prüfen</text>

      <rect x="656" y="96" width="178" height="168" rx="10" fill="#ffffff" stroke="#c7e6f4"/>
      <g transform="translate(737 106) scale(0.64)" fill="none" stroke="#009EE3" stroke-width="2.4" stroke-linecap="round" stroke-linejoin="round">
        <ellipse cx="12" cy="5" rx="9" ry="3" />
        <path d="M3 5V19A9 3 0 0 0 21 19V5" />
        <path d="M3 12A9 3 0 0 0 21 12" />
      </g>
      <text x="745" y="144" text-anchor="middle" font-size="16" font-weight="700" fill="#00354e">Grafana Enterprise</text>
      <text x="680" y="170" font-size="12" fill="#004b6f">User Permissions</text>
      <text x="680" y="193" font-size="12" fill="#004b6f">Datasource Permissions</text>
      <text x="680" y="216" font-size="12" fill="#004b6f">Dashboard API</text>
      <text x="680" y="239" font-size="12" fill="#004b6f">Managed Dashboards</text>
    </g>
  </g>
</svg>
